<?xml version="1.0" encoding="UTF-8" standalone="no"?>
<!-- Created with Inkscape (http://www.inkscape.org/) -->

<svg
   xmlns:dc="http://purl.org/dc/elements/1.1/"
   xmlns:cc="http://creativecommons.org/ns#"
   xmlns:rdf="http://www.w3.org/1999/02/22-rdf-syntax-ns#"
   xmlns:svg="http://www.w3.org/2000/svg"
   xmlns="http://www.w3.org/2000/svg"
   xmlns:sodipodi="http://sodipodi.sourceforge.net/DTD/sodipodi-0.dtd"
   xmlns:inkscape="http://www.inkscape.org/namespaces/inkscape"
   id="svg2"
   version="1.1"
   inkscape:version="0.48.1 r9760"
   width="32.512699"
   height="39.999992"
   sodipodi:docname="face.svg"
   inkscape:export-filename="/home/recencyeffect/devel/google_appengine/mic/img/head.png"
   inkscape:export-xdpi="2.24"
   inkscape:export-ydpi="2.24">
  <metadata
     id="metadata8">
    <rdf:RDF>
      <cc:Work
         rdf:about="">
        <dc:format>image/svg+xml</dc:format>
        <dc:type
           rdf:resource="http://purl.org/dc/dcmitype/StillImage" />
        <dc:title />
      </cc:Work>
    </rdf:RDF>
  </metadata>
  <defs
     id="defs6" />
  <sodipodi:namedview
     pagecolor="#ffffff"
     bordercolor="#666666"
     borderopacity="1"
     objecttolerance="10"
     gridtolerance="10"
     guidetolerance="10"
     inkscape:pageopacity="0"
     inkscape:pageshadow="2"
     inkscape:window-width="1366"
     inkscape:window-height="744"
     id="namedview4"
     showgrid="false"
     inkscape:zoom="2"
     inkscape:cx="38.655699"
     inkscape:cy="12.963725"
     inkscape:window-x="0"
     inkscape:window-y="24"
     inkscape:window-maximized="1"
     inkscape:current-layer="svg2"
     fit-margin-top="0"
     fit-margin-left="0"
     fit-margin-right="0"
     fit-margin-bottom="0" />
  <path
     style="fill:#444444;fill-opacity:1"
     d="m 6.9169037,32.82448 c -0.7050202,-1.5595 -0.7391847,-3.9207 -1.4819179,-4.8757 -1.273005,2.688 -3.5051815,-2.8637 -4.2533145,-4.0668 -1.28232543,-2.0621 -2.4414585,-7.1693 1.7698374,-5.4901 -1.0424755,-1.2424 -0.1466907,-3.7237 -0.4782778,-5.1689 0.1867163,-1.9028 0.9326057,-3.6692 1.5040651,-5.4416 0.7269894,-1.9105 2.5692076,-3.0215 3.7627875,-4.5723 1.4282097,-1.2265 2.9830975,-2.2075 4.8193555,-2.64720001 1.746765,-0.3138 3.5247,-0.8323 5.306961,-0.3919 1.413528,0.4564 3.002537,0.7362 4.284395,1.50130001 1.014504,1.0253 2.258187,1.3513 3.282309,2.3867 0.836245,1.2039 1.702789,2.2253 2.446238,3.6457 0.91947,1.0163 1.296958,1.7684 1.889655,2.7614 -0.29452,1.0305 0.387684,2.0196 0.08763,3.1925 0.89984,1.0207 0.0024,2.9474 -0.395828,3.7452 4.221119,-1.4024 2.906718,4.3497 2.684821,5.7566 -0.322914,2.0473 -1.647761,7.0616 -3.890504,3.8912 -0.293635,1.8316 -0.82297,4.0286 -1.526052,5.7109 -1.74881,4.1843 -6.0584,7.3519 -9.948114,7.2354 -2.999346,-0.09 -8.6699748,-4.5311 -9.8640423,-7.1724 z m -4.812025,-16.4246 c -0.1044146,-0.2023 -0.015908,0.2445 0,0 z m 25.7989783,-8.498 c -0.21431,-0.1797 0.08186,0.1915 0,0 z M 17.502554,0.07547999 c -0.08813,-0.1031 -0.03972,0.1448 0,0 z M 29.279253,9.41218 c 0.03552,-0.1023 0.06056,0.1044 0,0 z"
     id="path2987"
     inkscape:connector-curvature="0"
     sodipodi:nodetypes="scsccccccccccccscssscccccccc" />
</svg>
