<?xml version="1.0" encoding="UTF-8" standalone="no"?>
<!-- Created with Inkscape (http://www.inkscape.org/) -->

<svg
   xmlns:dc="http://purl.org/dc/elements/1.1/"
   xmlns:cc="http://creativecommons.org/ns#"
   xmlns:rdf="http://www.w3.org/1999/02/22-rdf-syntax-ns#"
   xmlns:svg="http://www.w3.org/2000/svg"
   xmlns="http://www.w3.org/2000/svg"
   version="1.1"
   width="81.48896"
   height="33.609726"
   id="svg2">
  <defs
     id="defs4" />
  <metadata
     id="metadata7">
    <rdf:RDF>
      <cc:Work
         rdf:about="">
        <dc:format>image/svg+xml</dc:format>
        <dc:type
           rdf:resource="http://purl.org/dc/dcmitype/StillImage" />
        <dc:title></dc:title>
      </cc:Work>
    </rdf:RDF>
  </metadata>
  <g
     id="lupa">
    <path
       d="M 11.87436,0.50429415 A 11.066107,11.066107 0 0 0 0.50002391,11.589102 11.066107,11.066107 0 0 0 15.017813,22.053491 l 6.990046,10.464389 c 1.269914,2.050894 7.063531,-1.739793 5.252875,-3.598426 L 19.608908,19.158205 A 11.066107,11.066107 0 0 0 22.628278,11.589102 11.066107,11.066107 0 0 0 11.87436,0.50429415 z"
       id="path3755"
       style="fill:#d0d0d0;fill-opacity:1;stroke:#ffffff;stroke-width:1;stroke-linecap:round;stroke-linejoin:round" />
    <path
       d="m 19.731249,11.571199 a 8.1651192,8.1651192 0 1 1 -16.3302358,0 8.1651192,8.1651192 0 1 1 16.3302358,0 z"
       id="path3759"
       style="fill:#808080;fill-opacity:1;stroke:none" />
  </g>
  <g
     id="moliv">
    <path
       d="M 34.037687,0.69124092 C 31.975093,0.53215442 29.75551,2.0122833 30.14371,4.1145173 L 46.233108,27.178842 c 0.241204,-1.896386 3.060109,-3.182893 4.707005,-2.781411 L 34.936296,0.86240473 C 34.656162,0.77011321 34.332348,0.71397147 34.037687,0.69124092 z M 46.427417,27.363331 c 2.222596,1.571817 4.924407,3.941162 7.080154,5.378335 -0.610836,-2.36751 -1.739992,-5.803253 -2.37308,-8.118361 -1.776845,-0.473056 -4.602801,0.848542 -4.707074,2.740026 z"
       id="path3761"
       style="font-size:medium;font-style:normal;font-variant:normal;font-weight:normal;font-stretch:normal;text-indent:0;text-align:start;text-decoration:none;line-height:normal;letter-spacing:normal;word-spacing:normal;text-transform:none;direction:ltr;block-progression:tb;writing-mode:lr-tb;text-anchor:start;baseline-shift:baseline;color:#000000;fill:#d0d0d0;fill-opacity:1;stroke:#ffffff;stroke-width:1;stroke-linecap:round;stroke-linejoin:round;marker:none;visibility:visible;display:inline;overflow:visible;enable-background:accumulate;font-family:Sans;-inkscape-font-specification:Sans" />
    <path
       d="M 35.660449,3.0965169 C 34.847648,2.7140306 31.880824,3.704294 31.809108,5.3776808 30.661639,3.704294 30.557565,3.7127432 30.438032,3.3302461 30.318509,2.9477599 30.581474,1.9198233 31.681125,1.2026467 c 1.099665,-0.71716579 2.462281,-0.62154153 2.820867,-0.143431 0.358579,0.4781105 1.158457,2.0373012 1.158457,2.0373012 z"
       id="path3778"
       style="fill:#808080;fill-opacity:1;stroke:none" />
  </g>
  <g
     id="strelka">
    <path
       d="M 60.721963,0.50429415 56.834008,3.275496 70.77274,22.673909 c -1.140327,0.452154 -2.363006,0.717196 -3.639788,0.703141 l 8.024077,5.41832 0.08272,0.124084 0.04136,-0.04136 5.707849,3.846594 -1.861255,-6.617796 -2.605757,-9.471719 c -0.413516,1.227615 -1.059434,2.322597 -1.861255,3.267536 L 60.721963,0.50429415 z"
       id="path3799"
       style="font-size:medium;font-style:normal;font-variant:normal;font-weight:normal;font-stretch:normal;text-indent:0;text-align:start;text-decoration:none;line-height:normal;letter-spacing:normal;word-spacing:normal;text-transform:none;direction:ltr;block-progression:tb;writing-mode:lr-tb;text-anchor:start;baseline-shift:baseline;color:#000000;fill:#d0d0d0;fill-opacity:1;stroke:#ffffff;stroke-width:1;stroke-linecap:round;stroke-linejoin:round;marker:none;visibility:visible;display:inline;overflow:visible;enable-background:accumulate;font-family:Sans;-inkscape-font-specification:Sans" />
  </g>
</svg>
